<svg width="512" height="512" viewBox="0 0 512 512" fill="none" xmlns="http://www.w3.org/2000/svg">
<rect width="509.867" height="512" rx="89.825" fill="url(#paint0_linear)"/>
<path d="M87.625 293L52.75 201.875H52.1875C52.8438 209.094 53.1719 217.672 53.1719 227.609V293H42.1328V190.203H60.1328L92.6875 275H93.25L126.086 190.203H143.945V293H131.992V226.766C131.992 219.172 132.32 210.922 132.977 202.016H132.414L97.2578 293H87.625ZM236.828 293L224.031 260.305H182.828L170.172 293H158.078L198.719 189.781H208.773L249.203 293H236.828ZM220.305 249.547L208.352 217.695C206.805 213.664 205.211 208.719 203.57 202.859C202.539 207.359 201.062 212.305 199.141 217.695L187.047 249.547H220.305ZM331.75 293H318.18L290.547 247.789L262.422 293H249.766L283.938 239.281L252.086 190.203H265.305L290.828 230.914L316.562 190.203H329.289L297.438 238.859L331.75 293ZM42.1328 453V350.203H54.0859V453H42.1328ZM127.844 453L92.9688 361.875H92.4062C93.0625 369.094 93.3906 377.672 93.3906 387.609V453H82.3516V350.203H100.352L132.906 435H133.469L166.305 350.203H184.164V453H172.211V386.766C172.211 379.172 172.539 370.922 173.195 362.016H172.633L137.477 453H127.844ZM290.055 350.203V416.719C290.055 428.438 286.516 437.648 279.438 444.352C272.359 451.055 262.633 454.406 250.258 454.406C237.883 454.406 228.297 451.031 221.5 444.281C214.75 437.531 211.375 428.25 211.375 416.438V350.203H223.328V417.281C223.328 425.859 225.672 432.445 230.359 437.039C235.047 441.633 241.938 443.93 251.031 443.93C259.703 443.93 266.383 441.633 271.07 437.039C275.758 432.398 278.102 425.766 278.102 417.141V350.203H290.055ZM375.344 425.648C375.344 434.695 372.062 441.75 365.5 446.812C358.938 451.875 350.031 454.406 338.781 454.406C326.594 454.406 317.219 452.836 310.656 449.695V438.164C314.875 439.945 319.469 441.352 324.438 442.383C329.406 443.414 334.328 443.93 339.203 443.93C347.172 443.93 353.172 442.43 357.203 439.43C361.234 436.383 363.25 432.164 363.25 426.773C363.25 423.211 362.523 420.305 361.07 418.055C359.664 415.758 357.273 413.648 353.898 411.727C350.57 409.805 345.484 407.625 338.641 405.188C329.078 401.766 322.234 397.711 318.109 393.023C314.031 388.336 311.992 382.219 311.992 374.672C311.992 366.75 314.969 360.445 320.922 355.758C326.875 351.07 334.75 348.727 344.547 348.727C354.766 348.727 364.164 350.602 372.742 354.352L369.016 364.758C360.531 361.195 352.281 359.414 344.266 359.414C337.938 359.414 332.992 360.773 329.43 363.492C325.867 366.211 324.086 369.984 324.086 374.812C324.086 378.375 324.742 381.305 326.055 383.602C327.367 385.852 329.57 387.938 332.664 389.859C335.805 391.734 340.586 393.82 347.008 396.117C357.789 399.961 365.195 404.086 369.227 408.492C373.305 412.898 375.344 418.617 375.344 425.648ZM447.062 475.148H381.953V465.938H447.062V475.148Z" fill="white"/>
<defs>
<linearGradient id="paint0_linear" x1="307" y1="512" x2="477.462" y2="23.7883" gradientUnits="userSpaceOnUse">
<stop stop-color="#F12C10"/>
<stop offset="1" stop-color="#FF8B00"/>
</linearGradient>
</defs>
</svg>
