<svg width="510" height="512" viewBox="0 0 510 512" fill="none" xmlns="http://www.w3.org/2000/svg">
<rect x="4" y="4" width="501.867" height="504" rx="85.825" stroke="url(#paint0_linear)" stroke-width="8"/>
<path d="M90.625 277L55.75 185.875H55.1875C55.8438 193.094 56.1719 201.672 56.1719 211.609V277H45.1328V174.203H63.1328L95.6875 259H96.25L129.086 174.203H146.945V277H134.992V210.766C134.992 203.172 135.32 194.922 135.977 186.016H135.414L100.258 277H90.625ZM239.828 277L227.031 244.305H185.828L173.172 277H161.078L201.719 173.781H211.773L252.203 277H239.828ZM223.305 233.547L211.352 201.695C209.805 197.664 208.211 192.719 206.57 186.859C205.539 191.359 204.062 196.305 202.141 201.695L190.047 233.547H223.305ZM334.75 277H321.18L293.547 231.789L265.422 277H252.766L286.938 223.281L255.086 174.203H268.305L293.828 214.914L319.562 174.203H332.289L300.438 222.859L334.75 277ZM45.1328 437V334.203H57.0859V437H45.1328ZM130.844 437L95.9688 345.875H95.4062C96.0625 353.094 96.3906 361.672 96.3906 371.609V437H85.3516V334.203H103.352L135.906 419H136.469L169.305 334.203H187.164V437H175.211V370.766C175.211 363.172 175.539 354.922 176.195 346.016H175.633L140.477 437H130.844ZM293.055 334.203V400.719C293.055 412.438 289.516 421.648 282.438 428.352C275.359 435.055 265.633 438.406 253.258 438.406C240.883 438.406 231.297 435.031 224.5 428.281C217.75 421.531 214.375 412.25 214.375 400.438V334.203H226.328V401.281C226.328 409.859 228.672 416.445 233.359 421.039C238.047 425.633 244.938 427.93 254.031 427.93C262.703 427.93 269.383 425.633 274.07 421.039C278.758 416.398 281.102 409.766 281.102 401.141V334.203H293.055ZM378.344 409.648C378.344 418.695 375.062 425.75 368.5 430.812C361.938 435.875 353.031 438.406 341.781 438.406C329.594 438.406 320.219 436.836 313.656 433.695V422.164C317.875 423.945 322.469 425.352 327.438 426.383C332.406 427.414 337.328 427.93 342.203 427.93C350.172 427.93 356.172 426.43 360.203 423.43C364.234 420.383 366.25 416.164 366.25 410.773C366.25 407.211 365.523 404.305 364.07 402.055C362.664 399.758 360.273 397.648 356.898 395.727C353.57 393.805 348.484 391.625 341.641 389.188C332.078 385.766 325.234 381.711 321.109 377.023C317.031 372.336 314.992 366.219 314.992 358.672C314.992 350.75 317.969 344.445 323.922 339.758C329.875 335.07 337.75 332.727 347.547 332.727C357.766 332.727 367.164 334.602 375.742 338.352L372.016 348.758C363.531 345.195 355.281 343.414 347.266 343.414C340.938 343.414 335.992 344.773 332.43 347.492C328.867 350.211 327.086 353.984 327.086 358.812C327.086 362.375 327.742 365.305 329.055 367.602C330.367 369.852 332.57 371.938 335.664 373.859C338.805 375.734 343.586 377.82 350.008 380.117C360.789 383.961 368.195 388.086 372.227 392.492C376.305 396.898 378.344 402.617 378.344 409.648ZM450.062 459.148H384.953V449.938H450.062V459.148Z" fill="url(#paint1_linear)"/>
<defs>
<linearGradient id="paint0_linear" x1="481.5" y1="32" x2="26.5" y2="485" gradientUnits="userSpaceOnUse">
<stop stop-color="#FF8B00"/>
<stop offset="1" stop-color="#F12C10"/>
</linearGradient>
<linearGradient id="paint1_linear" x1="486" y1="56" x2="39.5" y2="513.5" gradientUnits="userSpaceOnUse">
<stop stop-color="#FF8B00"/>
<stop offset="1" stop-color="#F12C10"/>
</linearGradient>
</defs>
</svg>
