<svg width="406" height="323" viewBox="0 0 406 323" fill="none" xmlns="http://www.w3.org/2000/svg">
<path d="M45.625 104L10.75 12.875H10.1875C10.8438 20.0938 11.1719 28.6719 11.1719 38.6094V104H0.132812V1.20312H18.1328L50.6875 86H51.25L84.0859 1.20312H101.945V104H89.9922V37.7656C89.9922 30.1719 90.3203 21.9219 90.9766 13.0156H90.4141L55.2578 104H45.625ZM194.828 104L182.031 71.3047H140.828L128.172 104H116.078L156.719 0.78125H166.773L207.203 104H194.828ZM178.305 60.5469L166.352 28.6953C164.805 24.6641 163.211 19.7188 161.57 13.8594C160.539 18.3594 159.062 23.3047 157.141 28.6953L145.047 60.5469H178.305ZM289.75 104H276.18L248.547 58.7891L220.422 104H207.766L241.938 50.2812L210.086 1.20312H223.305L248.828 41.9141L274.562 1.20312H287.289L255.438 49.8594L289.75 104ZM0.132812 300V197.203H12.0859V300H0.132812ZM85.8438 300L50.9688 208.875H50.4062C51.0625 216.094 51.3906 224.672 51.3906 234.609V300H40.3516V197.203H58.3516L90.9062 282H91.4688L124.305 197.203H142.164V300H130.211V233.766C130.211 226.172 130.539 217.922 131.195 209.016H130.633L95.4766 300H85.8438ZM248.055 197.203V263.719C248.055 275.438 244.516 284.648 237.438 291.352C230.359 298.055 220.633 301.406 208.258 301.406C195.883 301.406 186.297 298.031 179.5 291.281C172.75 284.531 169.375 275.25 169.375 263.438V197.203H181.328V264.281C181.328 272.859 183.672 279.445 188.359 284.039C193.047 288.633 199.938 290.93 209.031 290.93C217.703 290.93 224.383 288.633 229.07 284.039C233.758 279.398 236.102 272.766 236.102 264.141V197.203H248.055ZM333.344 272.648C333.344 281.695 330.062 288.75 323.5 293.812C316.938 298.875 308.031 301.406 296.781 301.406C284.594 301.406 275.219 299.836 268.656 296.695V285.164C272.875 286.945 277.469 288.352 282.438 289.383C287.406 290.414 292.328 290.93 297.203 290.93C305.172 290.93 311.172 289.43 315.203 286.43C319.234 283.383 321.25 279.164 321.25 273.773C321.25 270.211 320.523 267.305 319.07 265.055C317.664 262.758 315.273 260.648 311.898 258.727C308.57 256.805 303.484 254.625 296.641 252.188C287.078 248.766 280.234 244.711 276.109 240.023C272.031 235.336 269.992 229.219 269.992 221.672C269.992 213.75 272.969 207.445 278.922 202.758C284.875 198.07 292.75 195.727 302.547 195.727C312.766 195.727 322.164 197.602 330.742 201.352L327.016 211.758C318.531 208.195 310.281 206.414 302.266 206.414C295.938 206.414 290.992 207.773 287.43 210.492C283.867 213.211 282.086 216.984 282.086 221.812C282.086 225.375 282.742 228.305 284.055 230.602C285.367 232.852 287.57 234.938 290.664 236.859C293.805 238.734 298.586 240.82 305.008 243.117C315.789 246.961 323.195 251.086 327.227 255.492C331.305 259.898 333.344 265.617 333.344 272.648ZM405.062 322.148H339.953V312.938H405.062V322.148Z" fill="url(#paint0_linear)"/>
<defs>
<linearGradient id="paint0_linear" x1="307.5" y1="33.5" x2="168.5" y2="199.5" gradientUnits="userSpaceOnUse">
<stop stop-color="#FF8B00"/>
<stop offset="1" stop-color="#E44D26"/>
</linearGradient>
</defs>
</svg>
